<?xml version="1.0" standalone="no"?>
<!DOCTYPE svg PUBLIC "-//W3C//DTD SVG 20010904//EN"
 "http://www.w3.org/TR/2001/REC-SVG-20010904/DTD/svg10.dtd">
<svg version="1.0" xmlns="http://www.w3.org/2000/svg"
 width="260.000000pt" height="260.000000pt" viewBox="0 0 260.000000 260.000000"
 preserveAspectRatio="xMidYMid meet">
<metadata>
Created by potrace 1.11, written by Peter Selinger 2001-2013
</metadata>
<g transform="translate(0.000000,260.000000) scale(0.100000,-0.100000)"
fill="#000000" stroke="none">
<path d="M1170 2554 c-222 -33 -372 -84 -530 -181 -205 -126 -377 -318 -477
-531 -34 -71 -96 -242 -88 -242 2 0 -1 -15 -6 -32 -30 -105 -33 -384 -5 -518
101 -476 461 -855 921 -969 120 -30 138 -32 290 -36 143 -3 210 3 325 31 402
99 740 399 880 782 26 70 43 133 65 238 11 51 14 317 4 379 -44 281 -164 519
-359 715 -36 36 -83 79 -105 95 -22 17 -42 33 -45 36 -10 11 -120 79 -172 105
-97 49 -246 98 -368 119 -41 8 -294 14 -330 9z m257 -756 c37 -34 53 -72 134
-320 40 -125 76 -224 80 -220 4 4 41 113 83 242 42 129 84 249 95 266 28 46
101 78 158 70 25 -3 60 -15 79 -26 37 -24 74 -91 74 -138 0 -17 -45 -159 -101
-314 -56 -156 -105 -294 -109 -308 -39 -119 -104 -289 -121 -316 -43 -71 -135
-103 -221 -77 -90 26 -95 36 -228 426 -24 70 -47 127 -50 127 -3 0 -41 -103
-84 -230 -82 -237 -107 -284 -166 -315 -39 -20 -133 -19 -177 1 -70 34 -65 23
-297 677 -58 164 -106 311 -106 327 0 41 17 80 48 114 72 76 201 69 264 -15
21 -27 161 -431 174 -497 4 -21 13 -26 18 -11 3 8 39 117 80 243 78 237 99
282 151 312 65 39 170 31 222 -18z"/>
</g>
</svg>
